<?xml version="1.0" standalone="no"?>
<!DOCTYPE svg PUBLIC "-//W3C//DTD SVG 20010904//EN"
 "http://www.w3.org/TR/2001/REC-SVG-20010904/DTD/svg10.dtd">
<svg version="1.0" xmlns="http://www.w3.org/2000/svg"
 width="512.000000pt" height="512.000000pt" viewBox="0 0 512.000000 512.000000"
 preserveAspectRatio="xMidYMid meet">
<metadata>
Created by potrace 1.14, written by Peter Selinger 2001-2017
</metadata>
<g transform="translate(0.000000,512.000000) scale(0.100000,-0.100000)"
fill="#000000" stroke="none">
<path d="M3005 4601 c-61 -15 -127 -67 -156 -122 -13 -27 -841 -2896 -889
-3084 -4 -16 -44 -158 -89 -314 -52 -183 -81 -299 -80 -325 3 -54 42 -135 84
-176 92 -89 258 -84 354 11 39 39 54 72 86 184 31 108 92 322 154 540 28 99
55 194 61 210 5 17 37 127 70 245 34 118 79 276 100 350 21 74 61 216 90 315
28 99 59 209 70 245 34 119 142 495 146 510 2 8 14 53 28 100 56 194 106 368
120 420 8 30 51 180 95 333 87 306 91 339 50 422 -27 54 -82 109 -129 127 -39
16 -120 20 -165 9z"/>
<path d="M1069 3706 c-20 -7 -49 -22 -65 -34 -16 -11 -237 -229 -491 -484
-516 -517 -515 -517 -508 -632 2 -34 11 -79 20 -101 12 -29 148 -172 493 -517
518 -520 519 -521 627 -519 108 1 188 50 235 144 24 48 28 68 26 115 -5 106
-13 115 -415 517 l-374 374 375 374 c226 226 382 390 393 413 25 53 27 138 5
196 -26 68 -57 103 -124 138 -66 33 -133 39 -197 16z"/>
<path d="M3865 3696 c-103 -49 -149 -121 -149 -231 0 -51 6 -81 22 -111 12
-24 170 -190 393 -413 l372 -372 -368 -368 c-409 -409 -419 -422 -419 -531 0
-189 199 -310 368 -223 48 25 990 966 1013 1012 12 25 18 60 18 111 0 64 -4
82 -27 120 -15 25 -237 255 -495 512 -343 342 -481 473 -516 491 -67 34 -146
35 -212 3z"/>
</g>
</svg>
